# xmcd
#
# Track frame offsets:
#	150
#	16764
#	34323
#	52081
#	67400
#	85262
#	104943
#	121698
#	139205
#	150032
#	160938
#	179664
#	193558
#	208093
#	225809
#	240022
#	256118
#	270100
#	286195
#	303923
#	319147
#
# Disc length: 4423 seconds
# Revision: 1
# Processed by: cddbd v1.5.2PL0 Copyright (c) Steve Scherf et al.
# Submitted via: dBpowerAMP V12.0
#
DISCID=15114515
DTITLE=Various Artist - Country Radio September 2009
DYEAR=2009
DGENRE=Country
TTITLE0=Terri Clark - Gypsy Boots
TTITLE1=Zac Brown Band - Toes
TTITLE2=Gary Allan - Today
TTITLE3=Jesse Lee - It's A Girl Thing
TTITLE4=Sugarland - Joey
TTITLE5=Alan Jackson - I Still Like Bologna
TTITLE6=Emerson Drive - I Love This Road
TTITLE7=Dean Brody - Gravity
TTITLE8=George Strait - El Rey
TTITLE9=Larry Gatlin and The Gatlin BroThers - Johnny Cash Is Dead and His House Burned Down
TTITLE10=Jamey Johnson - My Way To You
TTITLE11=Trailer Choir - Rockin The Beer Gut
TTITLE12=Steve Holy - Baby Don't Go
TTITLE13=Dierks Bentley - I Wanna Make You Close Your Eyes
TTITLE14=Josh Thompson - Beer On The Table
TTITLE15=Lee Brice - Love Like Crazy
TTITLE16=Michelle Branch - Sooner Or Later
TTITLE17=Reba McEntire - Consider Me Gone
TTITLE18=Steven Lee Olsen - Now
TTITLE19=Victoria Banks - When You Can Fly
TTITLE20=Cledus T Judd - If I Had Kellie Pickler's Boobs
EXTD=
EXTT0=
EXTT1=
EXTT2=
EXTT3=
EXTT4=
EXTT5=
EXTT6=
EXTT7=
EXTT8=
EXTT9=
EXTT10=
EXTT11=
EXTT12=
EXTT13=
EXTT14=
EXTT15=
EXTT16=
EXTT17=
EXTT18=
EXTT19=
EXTT20=
PLAYORDER=
